<mxfile host="app.diagrams.net" agent="Mozilla/5.0 (Macintosh; Intel Mac OS X 10_15_7) AppleWebKit/537.36 (KHTML, like Gecko) Chrome/133.0.0.0 Safari/537.36" version="26.1.0">
  <diagram name="第 1 页" id="uFKW13oD2mUaOlKedggl">
    <mxGraphModel dx="502" dy="332" grid="1" gridSize="10" guides="1" tooltips="1" connect="1" arrows="1" fold="1" page="1" pageScale="1" pageWidth="827" pageHeight="1169" math="1" shadow="0">
      <root>
        <mxCell id="0" />
        <mxCell id="1" parent="0" />
        <mxCell id="aUTcqc6jWZbXFdTLZVp--1" value="" style="shape=table;startSize=0;container=1;collapsible=0;childLayout=tableLayout;fontSize=16;gradientDirection=north;fontFamily=宋体;fillColor=#dae8fc;strokeColor=#6c8ebf;fontSource=https%3A%2F%2Ffonts.googleapis.com%2Fcss%3Ffamily%3D%25E5%25AE%258B%25E4%25BD%2593;" vertex="1" parent="1">
          <mxGeometry x="101" y="264.45" width="47.61" height="47.55" as="geometry" />
        </mxCell>
        <mxCell id="aUTcqc6jWZbXFdTLZVp--2" style="shape=tableRow;horizontal=0;startSize=0;swimlaneHead=0;swimlaneBody=0;strokeColor=inherit;top=0;left=0;bottom=0;right=0;collapsible=0;dropTarget=0;fillColor=none;points=[[0,0.5],[1,0.5]];portConstraint=eastwest;fontSize=16;fontFamily=宋体;fontSource=https%3A%2F%2Ffonts.googleapis.com%2Fcss%3Ffamily%3D%25E5%25AE%258B%25E4%25BD%2593;" vertex="1" parent="aUTcqc6jWZbXFdTLZVp--1">
          <mxGeometry width="47.61" height="12" as="geometry" />
        </mxCell>
        <mxCell id="aUTcqc6jWZbXFdTLZVp--3" style="shape=partialRectangle;html=1;whiteSpace=wrap;connectable=0;strokeColor=inherit;overflow=hidden;fillColor=none;top=0;left=0;bottom=0;right=0;pointerEvents=1;fontSize=16;fontFamily=宋体;fontSource=https%3A%2F%2Ffonts.googleapis.com%2Fcss%3Ffamily%3D%25E5%25AE%258B%25E4%25BD%2593;" vertex="1" parent="aUTcqc6jWZbXFdTLZVp--2">
          <mxGeometry width="12" height="12" as="geometry">
            <mxRectangle width="12" height="12" as="alternateBounds" />
          </mxGeometry>
        </mxCell>
        <mxCell id="aUTcqc6jWZbXFdTLZVp--4" style="shape=partialRectangle;html=1;whiteSpace=wrap;connectable=0;strokeColor=inherit;overflow=hidden;fillColor=none;top=0;left=0;bottom=0;right=0;pointerEvents=1;fontSize=16;fontFamily=宋体;fontSource=https%3A%2F%2Ffonts.googleapis.com%2Fcss%3Ffamily%3D%25E5%25AE%258B%25E4%25BD%2593;" vertex="1" parent="aUTcqc6jWZbXFdTLZVp--2">
          <mxGeometry x="12" width="12" height="12" as="geometry">
            <mxRectangle width="12" height="12" as="alternateBounds" />
          </mxGeometry>
        </mxCell>
        <mxCell id="aUTcqc6jWZbXFdTLZVp--5" style="shape=partialRectangle;html=1;whiteSpace=wrap;connectable=0;strokeColor=inherit;overflow=hidden;fillColor=none;top=0;left=0;bottom=0;right=0;pointerEvents=1;fontSize=16;fontFamily=宋体;fontSource=https%3A%2F%2Ffonts.googleapis.com%2Fcss%3Ffamily%3D%25E5%25AE%258B%25E4%25BD%2593;" vertex="1" parent="aUTcqc6jWZbXFdTLZVp--2">
          <mxGeometry x="24" width="12" height="12" as="geometry">
            <mxRectangle width="12" height="12" as="alternateBounds" />
          </mxGeometry>
        </mxCell>
        <mxCell id="aUTcqc6jWZbXFdTLZVp--6" style="shape=partialRectangle;html=1;whiteSpace=wrap;connectable=0;strokeColor=inherit;overflow=hidden;fillColor=none;top=0;left=0;bottom=0;right=0;pointerEvents=1;fontSize=16;fontFamily=宋体;fontSource=https%3A%2F%2Ffonts.googleapis.com%2Fcss%3Ffamily%3D%25E5%25AE%258B%25E4%25BD%2593;" vertex="1" parent="aUTcqc6jWZbXFdTLZVp--2">
          <mxGeometry x="36" width="12" height="12" as="geometry">
            <mxRectangle width="12" height="12" as="alternateBounds" />
          </mxGeometry>
        </mxCell>
        <mxCell id="aUTcqc6jWZbXFdTLZVp--7" value="" style="shape=tableRow;horizontal=0;startSize=0;swimlaneHead=0;swimlaneBody=0;strokeColor=inherit;top=0;left=0;bottom=0;right=0;collapsible=0;dropTarget=0;fillColor=none;points=[[0,0.5],[1,0.5]];portConstraint=eastwest;fontSize=16;fontFamily=宋体;fontSource=https%3A%2F%2Ffonts.googleapis.com%2Fcss%3Ffamily%3D%25E5%25AE%258B%25E4%25BD%2593;" vertex="1" parent="aUTcqc6jWZbXFdTLZVp--1">
          <mxGeometry y="12" width="47.61" height="12" as="geometry" />
        </mxCell>
        <mxCell id="aUTcqc6jWZbXFdTLZVp--8" value="" style="shape=partialRectangle;html=1;whiteSpace=wrap;connectable=0;strokeColor=inherit;overflow=hidden;fillColor=none;top=0;left=0;bottom=0;right=0;pointerEvents=1;fontSize=16;fontFamily=宋体;fontSource=https%3A%2F%2Ffonts.googleapis.com%2Fcss%3Ffamily%3D%25E5%25AE%258B%25E4%25BD%2593;" vertex="1" parent="aUTcqc6jWZbXFdTLZVp--7">
          <mxGeometry width="12" height="12" as="geometry">
            <mxRectangle width="12" height="12" as="alternateBounds" />
          </mxGeometry>
        </mxCell>
        <mxCell id="aUTcqc6jWZbXFdTLZVp--9" value="" style="shape=partialRectangle;html=1;whiteSpace=wrap;connectable=0;strokeColor=inherit;overflow=hidden;fillColor=none;top=0;left=0;bottom=0;right=0;pointerEvents=1;fontSize=16;fontFamily=宋体;fontSource=https%3A%2F%2Ffonts.googleapis.com%2Fcss%3Ffamily%3D%25E5%25AE%258B%25E4%25BD%2593;" vertex="1" parent="aUTcqc6jWZbXFdTLZVp--7">
          <mxGeometry x="12" width="12" height="12" as="geometry">
            <mxRectangle width="12" height="12" as="alternateBounds" />
          </mxGeometry>
        </mxCell>
        <mxCell id="aUTcqc6jWZbXFdTLZVp--10" value="" style="shape=partialRectangle;html=1;whiteSpace=wrap;connectable=0;strokeColor=inherit;overflow=hidden;fillColor=none;top=0;left=0;bottom=0;right=0;pointerEvents=1;fontSize=16;fontFamily=宋体;fontSource=https%3A%2F%2Ffonts.googleapis.com%2Fcss%3Ffamily%3D%25E5%25AE%258B%25E4%25BD%2593;" vertex="1" parent="aUTcqc6jWZbXFdTLZVp--7">
          <mxGeometry x="24" width="12" height="12" as="geometry">
            <mxRectangle width="12" height="12" as="alternateBounds" />
          </mxGeometry>
        </mxCell>
        <mxCell id="aUTcqc6jWZbXFdTLZVp--11" style="shape=partialRectangle;html=1;whiteSpace=wrap;connectable=0;strokeColor=inherit;overflow=hidden;fillColor=none;top=0;left=0;bottom=0;right=0;pointerEvents=1;fontSize=16;fontFamily=宋体;fontSource=https%3A%2F%2Ffonts.googleapis.com%2Fcss%3Ffamily%3D%25E5%25AE%258B%25E4%25BD%2593;" vertex="1" parent="aUTcqc6jWZbXFdTLZVp--7">
          <mxGeometry x="36" width="12" height="12" as="geometry">
            <mxRectangle width="12" height="12" as="alternateBounds" />
          </mxGeometry>
        </mxCell>
        <mxCell id="aUTcqc6jWZbXFdTLZVp--12" value="" style="shape=tableRow;horizontal=0;startSize=0;swimlaneHead=0;swimlaneBody=0;strokeColor=inherit;top=0;left=0;bottom=0;right=0;collapsible=0;dropTarget=0;fillColor=none;points=[[0,0.5],[1,0.5]];portConstraint=eastwest;fontSize=16;fontFamily=宋体;fontSource=https%3A%2F%2Ffonts.googleapis.com%2Fcss%3Ffamily%3D%25E5%25AE%258B%25E4%25BD%2593;" vertex="1" parent="aUTcqc6jWZbXFdTLZVp--1">
          <mxGeometry y="24" width="47.61" height="12" as="geometry" />
        </mxCell>
        <mxCell id="aUTcqc6jWZbXFdTLZVp--13" value="" style="shape=partialRectangle;html=1;whiteSpace=wrap;connectable=0;strokeColor=inherit;overflow=hidden;fillColor=none;top=0;left=0;bottom=0;right=0;pointerEvents=1;fontSize=16;fontFamily=宋体;fontSource=https%3A%2F%2Ffonts.googleapis.com%2Fcss%3Ffamily%3D%25E5%25AE%258B%25E4%25BD%2593;" vertex="1" parent="aUTcqc6jWZbXFdTLZVp--12">
          <mxGeometry width="12" height="12" as="geometry">
            <mxRectangle width="12" height="12" as="alternateBounds" />
          </mxGeometry>
        </mxCell>
        <mxCell id="aUTcqc6jWZbXFdTLZVp--14" value="" style="shape=partialRectangle;html=1;whiteSpace=wrap;connectable=0;strokeColor=inherit;overflow=hidden;fillColor=none;top=0;left=0;bottom=0;right=0;pointerEvents=1;fontSize=16;fontFamily=宋体;fontSource=https%3A%2F%2Ffonts.googleapis.com%2Fcss%3Ffamily%3D%25E5%25AE%258B%25E4%25BD%2593;" vertex="1" parent="aUTcqc6jWZbXFdTLZVp--12">
          <mxGeometry x="12" width="12" height="12" as="geometry">
            <mxRectangle width="12" height="12" as="alternateBounds" />
          </mxGeometry>
        </mxCell>
        <mxCell id="aUTcqc6jWZbXFdTLZVp--15" value="&lt;span style=&quot;color: rgba(0, 0, 0, 0); font-size: 0px; text-align: start; text-wrap-mode: nowrap;&quot;&gt;%3CmxGraphModel%3E%3Croot%3E%3CmxCell%20id%3D%220%22%2F%3E%3CmxCell%20id%3D%221%22%20parent%3D%220%22%2F%3E%3CmxCell%20id%3D%222%22%20value%3D%22%22%20style%3D%22shape%3Dtable%3BstartSize%3D0%3Bcontainer%3D1%3Bcollapsible%3D0%3BchildLayout%3DtableLayout%3BfontSize%3D16%3BgradientColor%3D%23808080%3BgradientDirection%3Dnorth%3B%22%20vertex%3D%221%22%20parent%3D%221%22%3E%3CmxGeometry%20x%3D%22458%22%20y%3D%22158%22%20width%3D%2230%22%20height%3D%2228%22%20as%3D%22geometry%22%2F%3E%3C%2FmxCell%3E%3CmxCell%20id%3D%223%22%20style%3D%22shape%3DtableRow%3Bhorizontal%3D0%3BstartSize%3D0%3BswimlaneHead%3D0%3BswimlaneBody%3D0%3BstrokeColor%3Dinherit%3Btop%3D0%3Bleft%3D0%3Bbottom%3D0%3Bright%3D0%3Bcollapsible%3D0%3BdropTarget%3D0%3BfillColor%3Dnone%3Bpoints%3D%5B%5B0%2C0.5%5D%2C%5B1%2C0.5%5D%5D%3BportConstraint%3Deastwest%3BfontSize%3D16%3B%22%20vertex%3D%221%22%20parent%3D%222%22%3E%3CmxGeometry%20width%3D%2230%22%20height%3D%227%22%20as%3D%22geometry%22%2F%3E%3C%2FmxCell%3E%3CmxCell%20id%3D%224%22%20style%3D%22shape%3DpartialRectangle%3Bhtml%3D1%3BwhiteSpace%3Dwrap%3Bconnectable%3D0%3BstrokeColor%3Dinherit%3Boverflow%3Dhidden%3BfillColor%3Dnone%3Btop%3D0%3Bleft%3D0%3Bbottom%3D0%3Bright%3D0%3BpointerEvents%3D1%3BfontSize%3D16%3B%22%20vertex%3D%221%22%20parent%3D%223%22%3E%3CmxGeometry%20width%3D%228%22%20height%3D%227%22%20as%3D%22geometry%22%3E%3CmxRectangle%20width%3D%228%22%20height%3D%227%22%20as%3D%22alternateBounds%22%2F%3E%3C%2FmxGeometry%3E%3C%2FmxCell%3E%3CmxCell%20id%3D%225%22%20style%3D%22shape%3DpartialRectangle%3Bhtml%3D1%3BwhiteSpace%3Dwrap%3Bconnectable%3D0%3BstrokeColor%3Dinherit%3Boverflow%3Dhidden%3BfillColor%3Dnone%3Btop%3D0%3Bleft%3D0%3Bbottom%3D0%3Bright%3D0%3BpointerEvents%3D1%3BfontSize%3D16%3B%22%20vertex%3D%221%22%20parent%3D%223%22%3E%3CmxGeometry%20x%3D%228%22%20width%3D%227%22%20height%3D%227%22%20as%3D%22geometry%22%3E%3CmxRectangle%20width%3D%227%22%20height%3D%227%22%20as%3D%22alternateBounds%22%2F%3E%3C%2FmxGeometry%3E%3C%2FmxCell%3E%3CmxCell%20id%3D%226%22%20style%3D%22shape%3DpartialRectangle%3Bhtml%3D1%3BwhiteSpace%3Dwrap%3Bconnectable%3D0%3BstrokeColor%3Dinherit%3Boverflow%3Dhidden%3BfillColor%3Dnone%3Btop%3D0%3Bleft%3D0%3Bbottom%3D0%3Bright%3D0%3BpointerEvents%3D1%3BfontSize%3D16%3B%22%20vertex%3D%221%22%20parent%3D%223%22%3E%3CmxGeometry%20x%3D%2215%22%20width%3D%228%22%20height%3D%227%22%20as%3D%22geometry%22%3E%3CmxRectangle%20width%3D%228%22%20height%3D%227%22%20as%3D%22alternateBounds%22%2F%3E%3C%2FmxGeometry%3E%3C%2FmxCell%3E%3CmxCell%20id%3D%227%22%20style%3D%22shape%3DpartialRectangle%3Bhtml%3D1%3BwhiteSpace%3Dwrap%3Bconnectable%3D0%3BstrokeColor%3Dinherit%3Boverflow%3Dhidden%3BfillColor%3Dnone%3Btop%3D0%3Bleft%3D0%3Bbottom%3D0%3Bright%3D0%3BpointerEvents%3D1%3BfontSize%3D16%3B%22%20vertex%3D%221%22%20parent%3D%223%22%3E%3CmxGeometry%20x%3D%2223%22%20width%3D%227%22%20height%3D%227%22%20as%3D%22geometry%22%3E%3CmxRectangle%20width%3D%227%22%20height%3D%227%22%20as%3D%22alternateBounds%22%2F%3E%3C%2FmxGeometry%3E%3C%2FmxCell%3E%3CmxCell%20id%3D%228%22%20value%3D%22%22%20style%3D%22shape%3DtableRow%3Bhorizontal%3D0%3BstartSize%3D0%3BswimlaneHead%3D0%3BswimlaneBody%3D0%3BstrokeColor%3Dinherit%3Btop%3D0%3Bleft%3D0%3Bbottom%3D0%3Bright%3D0%3Bcollapsible%3D0%3BdropTarget%3D0%3BfillColor%3Dnone%3Bpoints%3D%5B%5B0%2C0.5%5D%2C%5B1%2C0.5%5D%5D%3BportConstraint%3Deastwest%3BfontSize%3D16%3B%22%20vertex%3D%221%22%20parent%3D%222%22%3E%3CmxGeometry%20y%3D%227%22%20width%3D%2230%22%20height%3D%227%22%20as%3D%22geometry%22%2F%3E%3C%2FmxCell%3E%3CmxCell%20id%3D%229%22%20value%3D%22%22%20style%3D%22shape%3DpartialRectangle%3Bhtml%3D1%3BwhiteSpace%3Dwrap%3Bconnectable%3D0%3BstrokeColor%3Dinherit%3Boverflow%3Dhidden%3BfillColor%3Dnone%3Btop%3D0%3Bleft%3D0%3Bbottom%3D0%3Bright%3D0%3BpointerEvents%3D1%3BfontSize%3D16%3B%22%20vertex%3D%221%22%20parent%3D%228%22%3E%3CmxGeometry%20width%3D%228%22%20height%3D%227%22%20as%3D%22geometry%22%3E%3CmxRectangle%20width%3D%228%22%20height%3D%227%22%20as%3D%22alternateBounds%22%2F%3E%3C%2FmxGeometry%3E%3C%2FmxCell%3E%3CmxCell%20id%3D%2210%22%20value%3D%22%22%20style%3D%22shape%3DpartialRectangle%3Bhtml%3D1%3BwhiteSpace%3Dwrap%3Bconnectable%3D0%3BstrokeColor%3Dinherit%3Boverflow%3Dhidden%3BfillColor%3Dnone%3Btop%3D0%3Bleft%3D0%3Bbottom%3D0%3Bright%3D0%3BpointerEvents%3D1%3BfontSize%3D16%3B%22%20vertex%3D%221%22%20parent%3D%228%22%3E%3CmxGeometry%20x%3D%228%22%20width%3D%227%22%20height%3D%227%22%20as%3D%22geometry%22%3E%3CmxRectangle%20width%3D%227%22%20height%3D%227%22%20as%3D%22alternateBounds%22%2F%3E%3C%2FmxGeometry%3E%3C%2FmxCell%3E%3CmxCell%20id%3D%2211%22%20value%3D%22%22%20style%3D%22shape%3DpartialRectangle%3Bhtml%3D1%3BwhiteSpace%3Dwrap%3Bconnectable%3D0%3BstrokeColor%3Dinherit%3Boverflow%3Dhidden%3BfillColor%3Dnone%3Btop%3D0%3Bleft%3D0%3Bbottom%3D0%3Bright%3D0%3BpointerEvents%3D1%3BfontSize%3D16%3B%22%20vertex%3D%221%22%20parent%3D%228%22%3E%3CmxGeometry%20x%3D%2215%22%20width%3D%228%22%20height%3D%227%22%20as%3D%22geometry%22%3E%3CmxRectangle%20width%3D%228%22%20height%3D%227%22%20as%3D%22alternateBounds%22%2F%3E%3C%2FmxGeometry%3E%3C%2FmxCell%3E%3CmxCell%20id%3D%2212%22%20style%3D%22shape%3DpartialRectangle%3Bhtml%3D1%3BwhiteSpace%3Dwrap%3Bconnectable%3D0%3BstrokeColor%3Dinherit%3Boverflow%3Dhidden%3BfillColor%3Dnone%3Btop%3D0%3Bleft%3D0%3Bbottom%3D0%3Bright%3D0%3BpointerEvents%3D1%3BfontSize%3D16%3B%22%20vertex%3D%221%22%20parent%3D%228%22%3E%3CmxGeometry%20x%3D%2223%22%20width%3D%227%22%20height%3D%227%22%20as%3D%22geometry%22%3E%3CmxRectangle%20width%3D%227%22%20height%3D%227%22%20as%3D%22alternateBounds%22%2F%3E%3C%2FmxGeometry%3E%3C%2FmxCell%3E%3CmxCell%20id%3D%2213%22%20value%3D%22%22%20style%3D%22shape%3DtableRow%3Bhorizontal%3D0%3BstartSize%3D0%3BswimlaneHead%3D0%3BswimlaneBody%3D0%3BstrokeColor%3Dinherit%3Btop%3D0%3Bleft%3D0%3Bbottom%3D0%3Bright%3D0%3Bcollapsible%3D0%3BdropTarget%3D0%3BfillColor%3Dnone%3Bpoints%3D%5B%5B0%2C0.5%5D%2C%5B1%2C0.5%5D%5D%3BportConstraint%3Deastwest%3BfontSize%3D16%3B%22%20vertex%3D%221%22%20parent%3D%222%22%3E%3CmxGeometry%20y%3D%2214%22%20width%3D%2230%22%20height%3D%227%22%20as%3D%22geometry%22%2F%3E%3C%2FmxCell%3E%3CmxCell%20id%3D%2214%22%20value%3D%22%22%20style%3D%22shape%3DpartialRectangle%3Bhtml%3D1%3BwhiteSpace%3Dwrap%3Bconnectable%3D0%3BstrokeColor%3Dinherit%3Boverflow%3Dhidden%3BfillColor%3Dnone%3Btop%3D0%3Bleft%3D0%3Bbottom%3D0%3Bright%3D0%3BpointerEvents%3D1%3BfontSize%3D16%3B%22%20vertex%3D%221%22%20parent%3D%2213%22%3E%3CmxGeometry%20width%3D%228%22%20height%3D%227%22%20as%3D%22geometry%22%3E%3CmxRectangle%20width%3D%228%22%20height%3D%227%22%20as%3D%22alternateBounds%22%2F%3E%3C%2FmxGeometry%3E%3C%2FmxCell%3E%3CmxCell%20id%3D%2215%22%20value%3D%22%22%20style%3D%22shape%3DpartialRectangle%3Bhtml%3D1%3BwhiteSpace%3Dwrap%3Bconnectable%3D0%3BstrokeColor%3Dinherit%3Boverflow%3Dhidden%3BfillColor%3Dnone%3Btop%3D0%3Bleft%3D0%3Bbottom%3D0%3Bright%3D0%3BpointerEvents%3D1%3BfontSize%3D16%3B%22%20vertex%3D%221%22%20parent%3D%2213%22%3E%3CmxGeometry%20x%3D%228%22%20width%3D%227%22%20height%3D%227%22%20as%3D%22geometry%22%3E%3CmxRectangle%20width%3D%227%22%20height%3D%227%22%20as%3D%22alternateBounds%22%2F%3E%3C%2FmxGeometry%3E%3C%2FmxCell%3E%3CmxCell%20id%3D%2216%22%20value%3D%22%22%20style%3D%22shape%3DpartialRectangle%3Bhtml%3D1%3BwhiteSpace%3Dwrap%3Bconnectable%3D0%3BstrokeColor%3Dinherit%3Boverflow%3Dhidden%3BfillColor%3Dnone%3Btop%3D0%3Bleft%3D0%3Bbottom%3D0%3Bright%3D0%3BpointerEvents%3D1%3BfontSize%3D16%3B%22%20vertex%3D%221%22%20parent%3D%2213%22%3E%3CmxGeometry%20x%3D%2215%22%20width%3D%228%22%20height%3D%227%22%20as%3D%22geometry%22%3E%3CmxRectangle%20width%3D%228%22%20height%3D%227%22%20as%3D%22alternateBounds%22%2F%3E%3C%2FmxGeometry%3E%3C%2FmxCell%3E%3CmxCell%20id%3D%2217%22%20style%3D%22shape%3DpartialRectangle%3Bhtml%3D1%3BwhiteSpace%3Dwrap%3Bconnectable%3D0%3BstrokeColor%3Dinherit%3Boverflow%3Dhidden%3BfillColor%3Dnone%3Btop%3D0%3Bleft%3D0%3Bbottom%3D0%3Bright%3D0%3BpointerEvents%3D1%3BfontSize%3D16%3B%22%20vertex%3D%221%22%20parent%3D%2213%22%3E%3CmxGeometry%20x%3D%2223%22%20width%3D%227%22%20height%3D%227%22%20as%3D%22geometry%22%3E%3CmxRectangle%20width%3D%227%22%20height%3D%227%22%20as%3D%22alternateBounds%22%2F%3E%3C%2FmxGeometry%3E%3C%2FmxCell%3E%3CmxCell%20id%3D%2218%22%20value%3D%22%22%20style%3D%22shape%3DtableRow%3Bhorizontal%3D0%3BstartSize%3D0%3BswimlaneHead%3D0%3BswimlaneBody%3D0%3BstrokeColor%3Dinherit%3Btop%3D0%3Bleft%3D0%3Bbottom%3D0%3Bright%3D0%3Bcollapsible%3D0%3BdropTarget%3D0%3BfillColor%3Dnone%3Bpoints%3D%5B%5B0%2C0.5%5D%2C%5B1%2C0.5%5D%5D%3BportConstraint%3Deastwest%3BfontSize%3D16%3B%22%20vertex%3D%221%22%20parent%3D%222%22%3E%3CmxGeometry%20y%3D%2221%22%20width%3D%2230%22%20height%3D%227%22%20as%3D%22geometry%22%2F%3E%3C%2FmxCell%3E%3CmxCell%20id%3D%2219%22%20value%3D%22%22%20style%3D%22shape%3DpartialRectangle%3Bhtml%3D1%3BwhiteSpace%3Dwrap%3Bconnectable%3D0%3BstrokeColor%3Dinherit%3Boverflow%3Dhidden%3BfillColor%3Dnone%3Btop%3D0%3Bleft%3D0%3Bbottom%3D0%3Bright%3D0%3BpointerEvents%3D1%3BfontSize%3D16%3B%22%20vertex%3D%221%22%20parent%3D%2218%22%3E%3CmxGeometry%20width%3D%228%22%20height%3D%227%22%20as%3D%22geometry%22%3E%3CmxRectangle%20width%3D%228%22%20height%3D%227%22%20as%3D%22alternateBounds%22%2F%3E%3C%2FmxGeometry%3E%3C%2FmxCell%3E%3CmxCell%20id%3D%2220%22%20value%3D%22%22%20style%3D%22shape%3DpartialRectangle%3Bhtml%3D1%3BwhiteSpace%3Dwrap%3Bconnectable%3D0%3BstrokeColor%3Dinherit%3Boverflow%3Dhidden%3BfillColor%3Dnone%3Btop%3D0%3Bleft%3D0%3Bbottom%3D0%3Bright%3D0%3BpointerEvents%3D1%3BfontSize%3D16%3B%22%20vertex%3D%221%22%20parent%3D%2218%22%3E%3CmxGeometry%20x%3D%228%22%20width%3D%227%22%20height%3D%227%22%20as%3D%22geometry%22%3E%3CmxRectangle%20width%3D%227%22%20height%3D%227%22%20as%3D%22alternateBounds%22%2F%3E%3C%2FmxGeometry%3E%3C%2FmxCell%3E%3CmxCell%20id%3D%2221%22%20value%3D%22%22%20style%3D%22shape%3DpartialRectangle%3Bhtml%3D1%3BwhiteSpace%3Dwrap%3Bconnectable%3D0%3BstrokeColor%3Dinherit%3Boverflow%3Dhidden%3BfillColor%3Dnone%3Btop%3D0%3Bleft%3D0%3Bbottom%3D0%3Bright%3D0%3BpointerEvents%3D1%3BfontSize%3D16%3B%22%20vertex%3D%221%22%20parent%3D%2218%22%3E%3CmxGeometry%20x%3D%2215%22%20width%3D%228%22%20height%3D%227%22%20as%3D%22geometry%22%3E%3CmxRectangle%20width%3D%228%22%20height%3D%227%22%20as%3D%22alternateBounds%22%2F%3E%3C%2FmxGeometry%3E%3C%2FmxCell%3E%3CmxCell%20id%3D%2222%22%20style%3D%22shape%3DpartialRectangle%3Bhtml%3D1%3BwhiteSpace%3Dwrap%3Bconnectable%3D0%3BstrokeColor%3Dinherit%3Boverflow%3Dhidden%3BfillColor%3Dnone%3Btop%3D0%3Bleft%3D0%3Bbottom%3D0%3Bright%3D0%3BpointerEvents%3D1%3BfontSize%3D16%3B%22%20vertex%3D%221%22%20parent%3D%2218%22%3E%3CmxGeometry%20x%3D%2223%22%20width%3D%227%22%20height%3D%227%22%20as%3D%22geometry%22%3E%3CmxRectangle%20width%3D%227%22%20height%3D%227%22%20as%3D%22alternateBounds%22%2F%3E%3C%2FmxGeometry%3E%3C%2FmxCell%3E%3C%2Froot%3E%3C%2FmxGraphModel%3E&lt;/span&gt;" style="shape=partialRectangle;html=1;whiteSpace=wrap;connectable=0;strokeColor=inherit;overflow=hidden;fillColor=none;top=0;left=0;bottom=0;right=0;pointerEvents=1;fontSize=16;fontFamily=宋体;fontSource=https%3A%2F%2Ffonts.googleapis.com%2Fcss%3Ffamily%3D%25E5%25AE%258B%25E4%25BD%2593;" vertex="1" parent="aUTcqc6jWZbXFdTLZVp--12">
          <mxGeometry x="24" width="12" height="12" as="geometry">
            <mxRectangle width="12" height="12" as="alternateBounds" />
          </mxGeometry>
        </mxCell>
        <mxCell id="aUTcqc6jWZbXFdTLZVp--16" style="shape=partialRectangle;html=1;whiteSpace=wrap;connectable=0;strokeColor=inherit;overflow=hidden;fillColor=none;top=0;left=0;bottom=0;right=0;pointerEvents=1;fontSize=16;fontFamily=宋体;fontSource=https%3A%2F%2Ffonts.googleapis.com%2Fcss%3Ffamily%3D%25E5%25AE%258B%25E4%25BD%2593;" vertex="1" parent="aUTcqc6jWZbXFdTLZVp--12">
          <mxGeometry x="36" width="12" height="12" as="geometry">
            <mxRectangle width="12" height="12" as="alternateBounds" />
          </mxGeometry>
        </mxCell>
        <mxCell id="aUTcqc6jWZbXFdTLZVp--17" value="" style="shape=tableRow;horizontal=0;startSize=0;swimlaneHead=0;swimlaneBody=0;strokeColor=inherit;top=0;left=0;bottom=0;right=0;collapsible=0;dropTarget=0;fillColor=none;points=[[0,0.5],[1,0.5]];portConstraint=eastwest;fontSize=16;fontFamily=宋体;fontSource=https%3A%2F%2Ffonts.googleapis.com%2Fcss%3Ffamily%3D%25E5%25AE%258B%25E4%25BD%2593;" vertex="1" parent="aUTcqc6jWZbXFdTLZVp--1">
          <mxGeometry y="36" width="47.61" height="12" as="geometry" />
        </mxCell>
        <mxCell id="aUTcqc6jWZbXFdTLZVp--18" value="" style="shape=partialRectangle;html=1;whiteSpace=wrap;connectable=0;strokeColor=inherit;overflow=hidden;fillColor=none;top=0;left=0;bottom=0;right=0;pointerEvents=1;fontSize=16;fontFamily=宋体;fontSource=https%3A%2F%2Ffonts.googleapis.com%2Fcss%3Ffamily%3D%25E5%25AE%258B%25E4%25BD%2593;" vertex="1" parent="aUTcqc6jWZbXFdTLZVp--17">
          <mxGeometry width="12" height="12" as="geometry">
            <mxRectangle width="12" height="12" as="alternateBounds" />
          </mxGeometry>
        </mxCell>
        <mxCell id="aUTcqc6jWZbXFdTLZVp--19" value="" style="shape=partialRectangle;html=1;whiteSpace=wrap;connectable=0;strokeColor=inherit;overflow=hidden;fillColor=none;top=0;left=0;bottom=0;right=0;pointerEvents=1;fontSize=16;fontFamily=宋体;fontSource=https%3A%2F%2Ffonts.googleapis.com%2Fcss%3Ffamily%3D%25E5%25AE%258B%25E4%25BD%2593;" vertex="1" parent="aUTcqc6jWZbXFdTLZVp--17">
          <mxGeometry x="12" width="12" height="12" as="geometry">
            <mxRectangle width="12" height="12" as="alternateBounds" />
          </mxGeometry>
        </mxCell>
        <mxCell id="aUTcqc6jWZbXFdTLZVp--20" value="" style="shape=partialRectangle;html=1;whiteSpace=wrap;connectable=0;strokeColor=inherit;overflow=hidden;fillColor=none;top=0;left=0;bottom=0;right=0;pointerEvents=1;fontSize=16;fontFamily=宋体;fontSource=https%3A%2F%2Ffonts.googleapis.com%2Fcss%3Ffamily%3D%25E5%25AE%258B%25E4%25BD%2593;" vertex="1" parent="aUTcqc6jWZbXFdTLZVp--17">
          <mxGeometry x="24" width="12" height="12" as="geometry">
            <mxRectangle width="12" height="12" as="alternateBounds" />
          </mxGeometry>
        </mxCell>
        <mxCell id="aUTcqc6jWZbXFdTLZVp--21" style="shape=partialRectangle;html=1;whiteSpace=wrap;connectable=0;strokeColor=inherit;overflow=hidden;fillColor=none;top=0;left=0;bottom=0;right=0;pointerEvents=1;fontSize=16;fontFamily=宋体;fontSource=https%3A%2F%2Ffonts.googleapis.com%2Fcss%3Ffamily%3D%25E5%25AE%258B%25E4%25BD%2593;" vertex="1" parent="aUTcqc6jWZbXFdTLZVp--17">
          <mxGeometry x="36" width="12" height="12" as="geometry">
            <mxRectangle width="12" height="12" as="alternateBounds" />
          </mxGeometry>
        </mxCell>
        <mxCell id="aUTcqc6jWZbXFdTLZVp--42" style="edgeStyle=orthogonalEdgeStyle;rounded=0;orthogonalLoop=1;jettySize=auto;html=1;entryX=0;entryY=0.5;entryDx=0;entryDy=0;fontFamily=宋体;fontSource=https%3A%2F%2Ffonts.googleapis.com%2Fcss%3Ffamily%3D%25E5%25AE%258B%25E4%25BD%2593;" edge="1" parent="1" source="aUTcqc6jWZbXFdTLZVp--22" target="aUTcqc6jWZbXFdTLZVp--25">
          <mxGeometry relative="1" as="geometry" />
        </mxCell>
        <mxCell id="aUTcqc6jWZbXFdTLZVp--22" value="卷积层" style="rounded=0;whiteSpace=wrap;html=1;fontFamily=宋体;fontSource=https%3A%2F%2Ffonts.googleapis.com%2Fcss%3Ffamily%3D%25E5%25AE%258B%25E4%25BD%2593;fillColor=#e1d5e7;strokeColor=#9673a6;" vertex="1" parent="1">
          <mxGeometry x="188.61" y="220" width="68" height="26" as="geometry" />
        </mxCell>
        <mxCell id="aUTcqc6jWZbXFdTLZVp--43" style="edgeStyle=orthogonalEdgeStyle;rounded=0;orthogonalLoop=1;jettySize=auto;html=1;entryX=0;entryY=0.5;entryDx=0;entryDy=0;fontFamily=宋体;fontSource=https%3A%2F%2Ffonts.googleapis.com%2Fcss%3Ffamily%3D%25E5%25AE%258B%25E4%25BD%2593;" edge="1" parent="1" source="aUTcqc6jWZbXFdTLZVp--23" target="aUTcqc6jWZbXFdTLZVp--26">
          <mxGeometry relative="1" as="geometry" />
        </mxCell>
        <mxCell id="aUTcqc6jWZbXFdTLZVp--23" value="卷积层" style="rounded=0;whiteSpace=wrap;html=1;fontFamily=宋体;fontSource=https%3A%2F%2Ffonts.googleapis.com%2Fcss%3Ffamily%3D%25E5%25AE%258B%25E4%25BD%2593;fillColor=#e1d5e7;strokeColor=#9673a6;" vertex="1" parent="1">
          <mxGeometry x="188.61" y="275.22" width="68" height="26" as="geometry" />
        </mxCell>
        <mxCell id="aUTcqc6jWZbXFdTLZVp--44" style="edgeStyle=orthogonalEdgeStyle;rounded=0;orthogonalLoop=1;jettySize=auto;html=1;entryX=0;entryY=0.5;entryDx=0;entryDy=0;fontFamily=宋体;fontSource=https%3A%2F%2Ffonts.googleapis.com%2Fcss%3Ffamily%3D%25E5%25AE%258B%25E4%25BD%2593;" edge="1" parent="1" source="aUTcqc6jWZbXFdTLZVp--24" target="aUTcqc6jWZbXFdTLZVp--27">
          <mxGeometry relative="1" as="geometry" />
        </mxCell>
        <mxCell id="aUTcqc6jWZbXFdTLZVp--24" value="卷积层" style="rounded=0;whiteSpace=wrap;html=1;fontFamily=宋体;fontSource=https%3A%2F%2Ffonts.googleapis.com%2Fcss%3Ffamily%3D%25E5%25AE%258B%25E4%25BD%2593;fillColor=#e1d5e7;strokeColor=#9673a6;" vertex="1" parent="1">
          <mxGeometry x="188.61" y="330" width="68" height="26" as="geometry" />
        </mxCell>
        <mxCell id="aUTcqc6jWZbXFdTLZVp--45" style="edgeStyle=orthogonalEdgeStyle;rounded=0;orthogonalLoop=1;jettySize=auto;html=1;entryX=0;entryY=0;entryDx=0;entryDy=0;fontFamily=宋体;fontSource=https%3A%2F%2Ffonts.googleapis.com%2Fcss%3Ffamily%3D%25E5%25AE%258B%25E4%25BD%2593;" edge="1" parent="1" source="aUTcqc6jWZbXFdTLZVp--25" target="aUTcqc6jWZbXFdTLZVp--30">
          <mxGeometry relative="1" as="geometry">
            <Array as="points">
              <mxPoint x="404" y="233" />
            </Array>
          </mxGeometry>
        </mxCell>
        <mxCell id="aUTcqc6jWZbXFdTLZVp--25" value="线性单元" style="rounded=0;whiteSpace=wrap;html=1;fontFamily=宋体;fontSource=https%3A%2F%2Ffonts.googleapis.com%2Fcss%3Ffamily%3D%25E5%25AE%258B%25E4%25BD%2593;fillColor=#d5e8d4;strokeColor=#82b366;" vertex="1" parent="1">
          <mxGeometry x="290" y="220" width="68" height="26" as="geometry" />
        </mxCell>
        <mxCell id="aUTcqc6jWZbXFdTLZVp--46" style="edgeStyle=orthogonalEdgeStyle;rounded=0;orthogonalLoop=1;jettySize=auto;html=1;entryX=1;entryY=1;entryDx=0;entryDy=0;fontFamily=宋体;fontSource=https%3A%2F%2Ffonts.googleapis.com%2Fcss%3Ffamily%3D%25E5%25AE%258B%25E4%25BD%2593;" edge="1" parent="1" source="aUTcqc6jWZbXFdTLZVp--26" target="aUTcqc6jWZbXFdTLZVp--30">
          <mxGeometry relative="1" as="geometry">
            <Array as="points">
              <mxPoint x="378" y="288" />
              <mxPoint x="404" y="288" />
            </Array>
          </mxGeometry>
        </mxCell>
        <mxCell id="aUTcqc6jWZbXFdTLZVp--26" value="线性单元" style="rounded=0;whiteSpace=wrap;html=1;fontFamily=宋体;fontSource=https%3A%2F%2Ffonts.googleapis.com%2Fcss%3Ffamily%3D%25E5%25AE%258B%25E4%25BD%2593;fillColor=#d5e8d4;strokeColor=#82b366;" vertex="1" parent="1">
          <mxGeometry x="290" y="275.23" width="68" height="26" as="geometry" />
        </mxCell>
        <mxCell id="aUTcqc6jWZbXFdTLZVp--51" style="edgeStyle=orthogonalEdgeStyle;rounded=0;orthogonalLoop=1;jettySize=auto;html=1;entryX=1;entryY=1;entryDx=0;entryDy=0;fontFamily=宋体;fontSource=https%3A%2F%2Ffonts.googleapis.com%2Fcss%3Ffamily%3D%25E5%25AE%258B%25E4%25BD%2593;" edge="1" parent="1" source="aUTcqc6jWZbXFdTLZVp--27" target="aUTcqc6jWZbXFdTLZVp--49">
          <mxGeometry relative="1" as="geometry" />
        </mxCell>
        <mxCell id="aUTcqc6jWZbXFdTLZVp--27" value="线性单元" style="rounded=0;whiteSpace=wrap;html=1;fontFamily=宋体;fontSource=https%3A%2F%2Ffonts.googleapis.com%2Fcss%3Ffamily%3D%25E5%25AE%258B%25E4%25BD%2593;fillColor=#d5e8d4;strokeColor=#82b366;" vertex="1" parent="1">
          <mxGeometry x="290" y="330" width="68" height="26" as="geometry" />
        </mxCell>
        <mxCell id="aUTcqc6jWZbXFdTLZVp--48" style="edgeStyle=orthogonalEdgeStyle;rounded=0;orthogonalLoop=1;jettySize=auto;html=1;entryX=0;entryY=0.5;entryDx=0;entryDy=0;fontFamily=宋体;fontSource=https%3A%2F%2Ffonts.googleapis.com%2Fcss%3Ffamily%3D%25E5%25AE%258B%25E4%25BD%2593;" edge="1" parent="1" source="aUTcqc6jWZbXFdTLZVp--30" target="aUTcqc6jWZbXFdTLZVp--47">
          <mxGeometry relative="1" as="geometry" />
        </mxCell>
        <mxCell id="aUTcqc6jWZbXFdTLZVp--30" value="" style="ellipse;whiteSpace=wrap;html=1;aspect=fixed;fontFamily=宋体;fontSize=11;fontColor=default;labelBackgroundColor=default;rotation=42;fontSource=https%3A%2F%2Ffonts.googleapis.com%2Fcss%3Ffamily%3D%25E5%25AE%258B%25E4%25BD%2593;" vertex="1" parent="1">
          <mxGeometry x="396.0049967074784" y="255" width="16" height="16" as="geometry" />
        </mxCell>
        <mxCell id="aUTcqc6jWZbXFdTLZVp--31" value="" style="shape=mxgraph.sysml.x;fontFamily=宋体;fontSize=11;fontColor=default;labelBackgroundColor=default;strokeWidth=0.8;direction=west;rotation=0;fontSource=https%3A%2F%2Ffonts.googleapis.com%2Fcss%3Ffamily%3D%25E5%25AE%258B%25E4%25BD%2593;" vertex="1" parent="1">
          <mxGeometry x="399" y="257.5" width="11" height="11" as="geometry" />
        </mxCell>
        <mxCell id="aUTcqc6jWZbXFdTLZVp--38" style="rounded=0;orthogonalLoop=1;jettySize=auto;html=1;entryX=0;entryY=0.5;entryDx=0;entryDy=0;fontFamily=宋体;fontSource=https%3A%2F%2Ffonts.googleapis.com%2Fcss%3Ffamily%3D%25E5%25AE%258B%25E4%25BD%2593;" edge="1" parent="1">
          <mxGeometry relative="1" as="geometry">
            <mxPoint x="149" y="288.23" as="sourcePoint" />
            <mxPoint x="188.61" y="288.23" as="targetPoint" />
          </mxGeometry>
        </mxCell>
        <mxCell id="aUTcqc6jWZbXFdTLZVp--40" style="rounded=0;orthogonalLoop=1;jettySize=auto;html=1;entryX=0;entryY=0.5;entryDx=0;entryDy=0;fontFamily=宋体;fontSource=https%3A%2F%2Ffonts.googleapis.com%2Fcss%3Ffamily%3D%25E5%25AE%258B%25E4%25BD%2593;" edge="1" parent="1" target="aUTcqc6jWZbXFdTLZVp--22">
          <mxGeometry relative="1" as="geometry">
            <mxPoint x="149" y="288" as="sourcePoint" />
            <mxPoint x="187.61" y="221" as="targetPoint" />
            <Array as="points">
              <mxPoint x="170" y="288" />
              <mxPoint x="170" y="233" />
            </Array>
          </mxGeometry>
        </mxCell>
        <mxCell id="aUTcqc6jWZbXFdTLZVp--41" style="rounded=0;orthogonalLoop=1;jettySize=auto;html=1;entryX=0;entryY=0.5;entryDx=0;entryDy=0;fontFamily=宋体;fontSource=https%3A%2F%2Ffonts.googleapis.com%2Fcss%3Ffamily%3D%25E5%25AE%258B%25E4%25BD%2593;" edge="1" parent="1">
          <mxGeometry relative="1" as="geometry">
            <mxPoint x="151" y="288" as="sourcePoint" />
            <mxPoint x="188" y="343" as="targetPoint" />
            <Array as="points">
              <mxPoint x="170" y="288" />
              <mxPoint x="170" y="343" />
            </Array>
          </mxGeometry>
        </mxCell>
        <mxCell id="aUTcqc6jWZbXFdTLZVp--52" style="edgeStyle=orthogonalEdgeStyle;rounded=0;orthogonalLoop=1;jettySize=auto;html=1;exitX=1;exitY=0.5;exitDx=0;exitDy=0;entryX=0;entryY=0;entryDx=0;entryDy=0;fontFamily=宋体;fontSource=https%3A%2F%2Ffonts.googleapis.com%2Fcss%3Ffamily%3D%25E5%25AE%258B%25E4%25BD%2593;" edge="1" parent="1" source="aUTcqc6jWZbXFdTLZVp--47" target="aUTcqc6jWZbXFdTLZVp--49">
          <mxGeometry relative="1" as="geometry">
            <Array as="points">
              <mxPoint x="517" y="263" />
              <mxPoint x="517" y="291" />
              <mxPoint x="517" y="291" />
            </Array>
          </mxGeometry>
        </mxCell>
        <mxCell id="aUTcqc6jWZbXFdTLZVp--47" value="激活函数" style="rounded=0;whiteSpace=wrap;html=1;fontFamily=宋体;fontSource=https%3A%2F%2Ffonts.googleapis.com%2Fcss%3Ffamily%3D%25E5%25AE%258B%25E4%25BD%2593;fillColor=#f8cecc;strokeColor=#b85450;" vertex="1" parent="1">
          <mxGeometry x="435" y="250" width="68" height="26" as="geometry" />
        </mxCell>
        <mxCell id="aUTcqc6jWZbXFdTLZVp--56" style="edgeStyle=orthogonalEdgeStyle;rounded=0;orthogonalLoop=1;jettySize=auto;html=1;entryX=0;entryY=0;entryDx=0;entryDy=0;" edge="1" parent="1" source="aUTcqc6jWZbXFdTLZVp--49" target="aUTcqc6jWZbXFdTLZVp--54">
          <mxGeometry relative="1" as="geometry" />
        </mxCell>
        <mxCell id="aUTcqc6jWZbXFdTLZVp--49" value="" style="ellipse;whiteSpace=wrap;html=1;aspect=fixed;fontFamily=宋体;fontSize=11;fontColor=default;labelBackgroundColor=default;rotation=42;fontSource=https%3A%2F%2Ffonts.googleapis.com%2Fcss%3Ffamily%3D%25E5%25AE%258B%25E4%25BD%2593;" vertex="1" parent="1">
          <mxGeometry x="509.0049967074784" y="296" width="16" height="16" as="geometry" />
        </mxCell>
        <mxCell id="aUTcqc6jWZbXFdTLZVp--50" value="" style="shape=mxgraph.sysml.x;fontFamily=宋体;fontSize=11;fontColor=default;labelBackgroundColor=default;strokeWidth=0.8;direction=west;rotation=0;fontSource=https%3A%2F%2Ffonts.googleapis.com%2Fcss%3Ffamily%3D%25E5%25AE%258B%25E4%25BD%2593;" vertex="1" parent="1">
          <mxGeometry x="512" y="298.5" width="11" height="11" as="geometry" />
        </mxCell>
        <mxCell id="aUTcqc6jWZbXFdTLZVp--54" value="" style="ellipse;whiteSpace=wrap;html=1;aspect=fixed;fontFamily=宋体;fontSize=11;fontColor=default;labelBackgroundColor=default;rotation=42;fontSource=https%3A%2F%2Ffonts.googleapis.com%2Fcss%3Ffamily%3D%25E5%25AE%258B%25E4%25BD%2593;" vertex="1" parent="1">
          <mxGeometry x="550.0049967074784" y="355" width="16" height="16" as="geometry" />
        </mxCell>
        <mxCell id="aUTcqc6jWZbXFdTLZVp--55" value="" style="shape=mxgraph.sysml.x;fontFamily=宋体;fontSize=11;fontColor=default;labelBackgroundColor=default;strokeWidth=0.8;direction=west;rotation=45;fontSource=https%3A%2F%2Ffonts.googleapis.com%2Fcss%3Ffamily%3D%25E5%25AE%258B%25E4%25BD%2593;" vertex="1" parent="1">
          <mxGeometry x="552.5" y="357.5" width="11" height="11" as="geometry" />
        </mxCell>
        <mxCell id="aUTcqc6jWZbXFdTLZVp--57" style="rounded=0;orthogonalLoop=1;jettySize=auto;html=1;fontFamily=宋体;fontSource=https%3A%2F%2Ffonts.googleapis.com%2Fcss%3Ffamily%3D%25E5%25AE%258B%25E4%25BD%2593;entryX=0;entryY=1;entryDx=0;entryDy=0;" edge="1" parent="1" target="aUTcqc6jWZbXFdTLZVp--54">
          <mxGeometry relative="1" as="geometry">
            <mxPoint x="125" y="312" as="sourcePoint" />
            <mxPoint x="162" y="369" as="targetPoint" />
            <Array as="points">
              <mxPoint x="125" y="363" />
            </Array>
          </mxGeometry>
        </mxCell>
        <mxCell id="aUTcqc6jWZbXFdTLZVp--61" value="&lt;span style=&quot;text-wrap-mode: nowrap;&quot;&gt;&lt;font style=&quot;font-size: 9px;&quot;&gt;$$H \times W \times C$$&lt;/font&gt;&lt;/span&gt;" style="text;html=1;align=center;verticalAlign=middle;whiteSpace=wrap;rounded=0;" vertex="1" parent="1">
          <mxGeometry x="98.61" y="246" width="50" height="19.5" as="geometry" />
        </mxCell>
      </root>
    </mxGraphModel>
  </diagram>
</mxfile>
